<mxfile host="app.diagrams.net" agent="Mozilla/5.0 (Windows NT 10.0; Win64; x64) AppleWebKit/537.36 (KHTML, like Gecko) Chrome/137.0.0.0 Safari/537.36" version="27.1.3">
  <diagram id="C5RBs43oDa-KdzZeNtuy" name="Page-1">
    <mxGraphModel dx="1950" dy="1765" grid="1" gridSize="10" guides="1" tooltips="1" connect="1" arrows="1" fold="1" page="1" pageScale="1" pageWidth="827" pageHeight="1169" math="0" shadow="0">
      <root>
        <mxCell id="WIyWlLk6GJQsqaUBKTNV-0" />
        <mxCell id="WIyWlLk6GJQsqaUBKTNV-1" parent="WIyWlLk6GJQsqaUBKTNV-0" />
        <mxCell id="yq9D64mHG4KZtYuCbHPB-89" value="" style="endArrow=none;html=1;rounded=0;" edge="1" parent="WIyWlLk6GJQsqaUBKTNV-1">
          <mxGeometry width="50" height="50" relative="1" as="geometry">
            <mxPoint x="-719" y="-590" as="sourcePoint" />
            <mxPoint x="-719" y="-590" as="targetPoint" />
            <Array as="points">
              <mxPoint x="-719" y="-590" />
            </Array>
          </mxGeometry>
        </mxCell>
        <mxCell id="yq9D64mHG4KZtYuCbHPB-152" value="Start" style="ellipse;whiteSpace=wrap;html=1;" vertex="1" parent="WIyWlLk6GJQsqaUBKTNV-1">
          <mxGeometry x="-495" y="-1000" width="80" height="50" as="geometry" />
        </mxCell>
        <mxCell id="yq9D64mHG4KZtYuCbHPB-153" value="Select date and time slot" style="rounded=0;whiteSpace=wrap;html=1;" vertex="1" parent="WIyWlLk6GJQsqaUBKTNV-1">
          <mxGeometry x="-510" y="-910" width="110" height="50" as="geometry" />
        </mxCell>
        <mxCell id="yq9D64mHG4KZtYuCbHPB-158" value="Appointment Successfully created and Token received" style="shape=parallelogram;perimeter=parallelogramPerimeter;whiteSpace=wrap;html=1;fixedSize=1;" vertex="1" parent="WIyWlLk6GJQsqaUBKTNV-1">
          <mxGeometry x="-540" y="-550" width="170" height="60" as="geometry" />
        </mxCell>
        <mxCell id="yq9D64mHG4KZtYuCbHPB-159" value="END" style="ellipse;whiteSpace=wrap;html=1;" vertex="1" parent="WIyWlLk6GJQsqaUBKTNV-1">
          <mxGeometry x="-495" y="-310" width="80" height="50" as="geometry" />
        </mxCell>
        <mxCell id="yq9D64mHG4KZtYuCbHPB-160" value="" style="endArrow=classic;html=1;rounded=0;exitX=0.5;exitY=1;exitDx=0;exitDy=0;entryX=0.5;entryY=0;entryDx=0;entryDy=0;" edge="1" source="yq9D64mHG4KZtYuCbHPB-152" target="yq9D64mHG4KZtYuCbHPB-153" parent="WIyWlLk6GJQsqaUBKTNV-1">
          <mxGeometry width="50" height="50" relative="1" as="geometry">
            <mxPoint x="-465" y="-770" as="sourcePoint" />
            <mxPoint x="-415" y="-820" as="targetPoint" />
          </mxGeometry>
        </mxCell>
        <mxCell id="yq9D64mHG4KZtYuCbHPB-161" value="" style="endArrow=classic;html=1;rounded=0;exitX=0.5;exitY=1;exitDx=0;exitDy=0;entryX=0.5;entryY=0;entryDx=0;entryDy=0;" edge="1" source="yq9D64mHG4KZtYuCbHPB-153" parent="WIyWlLk6GJQsqaUBKTNV-1">
          <mxGeometry width="50" height="50" relative="1" as="geometry">
            <mxPoint x="-465" y="-770" as="sourcePoint" />
            <mxPoint x="-455" y="-830" as="targetPoint" />
          </mxGeometry>
        </mxCell>
        <mxCell id="yq9D64mHG4KZtYuCbHPB-162" value="" style="endArrow=classic;html=1;rounded=0;entryX=0.5;entryY=0;entryDx=0;entryDy=0;exitX=0.5;exitY=1;exitDx=0;exitDy=0;" edge="1" source="yq9D64mHG4KZtYuCbHPB-171" parent="WIyWlLk6GJQsqaUBKTNV-1">
          <mxGeometry width="50" height="50" relative="1" as="geometry">
            <mxPoint x="-685" y="-600" as="sourcePoint" />
            <mxPoint x="-455" y="-680" as="targetPoint" />
          </mxGeometry>
        </mxCell>
        <mxCell id="yq9D64mHG4KZtYuCbHPB-164" value="" style="endArrow=classic;html=1;rounded=0;exitX=0.5;exitY=1;exitDx=0;exitDy=0;entryX=0.5;entryY=0;entryDx=0;entryDy=0;" edge="1" target="yq9D64mHG4KZtYuCbHPB-158" parent="WIyWlLk6GJQsqaUBKTNV-1">
          <mxGeometry width="50" height="50" relative="1" as="geometry">
            <mxPoint x="-455" y="-620" as="sourcePoint" />
            <mxPoint x="-325" y="-530" as="targetPoint" />
          </mxGeometry>
        </mxCell>
        <mxCell id="yq9D64mHG4KZtYuCbHPB-166" value="" style="endArrow=classic;html=1;rounded=0;exitX=0.5;exitY=1;exitDx=0;exitDy=0;entryX=0.5;entryY=0;entryDx=0;entryDy=0;" edge="1" target="yq9D64mHG4KZtYuCbHPB-159" parent="WIyWlLk6GJQsqaUBKTNV-1">
          <mxGeometry width="50" height="50" relative="1" as="geometry">
            <mxPoint x="-455" y="-350" as="sourcePoint" />
            <mxPoint x="-325" y="-310" as="targetPoint" />
          </mxGeometry>
        </mxCell>
        <mxCell id="yq9D64mHG4KZtYuCbHPB-171" value="is selected time available?" style="rhombus;whiteSpace=wrap;html=1;" vertex="1" parent="WIyWlLk6GJQsqaUBKTNV-1">
          <mxGeometry x="-515" y="-830" width="120" height="90" as="geometry" />
        </mxCell>
        <mxCell id="yq9D64mHG4KZtYuCbHPB-173" value="NO" style="text;html=1;align=center;verticalAlign=middle;resizable=0;points=[];autosize=1;strokeColor=none;fillColor=none;" vertex="1" parent="WIyWlLk6GJQsqaUBKTNV-1">
          <mxGeometry x="-400" y="-812" width="40" height="30" as="geometry" />
        </mxCell>
        <mxCell id="yq9D64mHG4KZtYuCbHPB-175" value="YES" style="text;html=1;align=center;verticalAlign=middle;resizable=0;points=[];autosize=1;strokeColor=none;fillColor=none;" vertex="1" parent="WIyWlLk6GJQsqaUBKTNV-1">
          <mxGeometry x="-465" y="-732" width="50" height="30" as="geometry" />
        </mxCell>
        <mxCell id="yq9D64mHG4KZtYuCbHPB-176" value="" style="endArrow=none;html=1;rounded=0;exitX=0.097;exitY=0.913;exitDx=0;exitDy=0;exitPerimeter=0;" edge="1" parent="WIyWlLk6GJQsqaUBKTNV-1" source="yq9D64mHG4KZtYuCbHPB-173">
          <mxGeometry width="50" height="50" relative="1" as="geometry">
            <mxPoint x="-390" y="-670" as="sourcePoint" />
            <mxPoint x="-300" y="-785" as="targetPoint" />
          </mxGeometry>
        </mxCell>
        <mxCell id="yq9D64mHG4KZtYuCbHPB-177" value="" style="endArrow=none;html=1;rounded=0;" edge="1" parent="WIyWlLk6GJQsqaUBKTNV-1">
          <mxGeometry width="50" height="50" relative="1" as="geometry">
            <mxPoint x="-300" y="-782" as="sourcePoint" />
            <mxPoint x="-300" y="-880" as="targetPoint" />
          </mxGeometry>
        </mxCell>
        <mxCell id="yq9D64mHG4KZtYuCbHPB-179" value="" style="endArrow=classic;html=1;rounded=0;entryX=1.001;entryY=0.591;entryDx=0;entryDy=0;entryPerimeter=0;" edge="1" parent="WIyWlLk6GJQsqaUBKTNV-1" target="yq9D64mHG4KZtYuCbHPB-153">
          <mxGeometry width="50" height="50" relative="1" as="geometry">
            <mxPoint x="-300" y="-880" as="sourcePoint" />
            <mxPoint x="-300" y="-900" as="targetPoint" />
          </mxGeometry>
        </mxCell>
        <mxCell id="yq9D64mHG4KZtYuCbHPB-180" value="Key appointment details&amp;nbsp;" style="rounded=0;whiteSpace=wrap;html=1;" vertex="1" parent="WIyWlLk6GJQsqaUBKTNV-1">
          <mxGeometry x="-515" y="-680" width="120" height="60" as="geometry" />
        </mxCell>
        <mxCell id="yq9D64mHG4KZtYuCbHPB-183" value="Satisfied with the appointment time?" style="rhombus;whiteSpace=wrap;html=1;" vertex="1" parent="WIyWlLk6GJQsqaUBKTNV-1">
          <mxGeometry x="-515" y="-440" width="120" height="90" as="geometry" />
        </mxCell>
        <mxCell id="yq9D64mHG4KZtYuCbHPB-184" value="" style="endArrow=classic;html=1;rounded=0;exitX=0.5;exitY=1;exitDx=0;exitDy=0;entryX=0.5;entryY=0;entryDx=0;entryDy=0;" edge="1" parent="WIyWlLk6GJQsqaUBKTNV-1" source="yq9D64mHG4KZtYuCbHPB-158" target="yq9D64mHG4KZtYuCbHPB-183">
          <mxGeometry width="50" height="50" relative="1" as="geometry">
            <mxPoint x="-470" y="-360" as="sourcePoint" />
            <mxPoint x="-420" y="-410" as="targetPoint" />
          </mxGeometry>
        </mxCell>
        <mxCell id="yq9D64mHG4KZtYuCbHPB-185" value="YES" style="text;html=1;align=center;verticalAlign=middle;resizable=0;points=[];autosize=1;strokeColor=none;fillColor=none;" vertex="1" parent="WIyWlLk6GJQsqaUBKTNV-1">
          <mxGeometry x="-465" y="-352" width="50" height="30" as="geometry" />
        </mxCell>
        <mxCell id="yq9D64mHG4KZtYuCbHPB-186" value="Cancel Appointment using token" style="rounded=0;whiteSpace=wrap;html=1;" vertex="1" parent="WIyWlLk6GJQsqaUBKTNV-1">
          <mxGeometry x="-360" y="-425" width="120" height="60" as="geometry" />
        </mxCell>
        <mxCell id="yq9D64mHG4KZtYuCbHPB-187" value="" style="endArrow=classic;html=1;rounded=0;entryX=0;entryY=0.5;entryDx=0;entryDy=0;exitX=0.958;exitY=0.5;exitDx=0;exitDy=0;exitPerimeter=0;" edge="1" parent="WIyWlLk6GJQsqaUBKTNV-1" source="yq9D64mHG4KZtYuCbHPB-183" target="yq9D64mHG4KZtYuCbHPB-186">
          <mxGeometry width="50" height="50" relative="1" as="geometry">
            <mxPoint x="-470" y="-420" as="sourcePoint" />
            <mxPoint x="-420" y="-470" as="targetPoint" />
          </mxGeometry>
        </mxCell>
        <mxCell id="yq9D64mHG4KZtYuCbHPB-188" value="NO" style="text;html=1;align=center;verticalAlign=middle;resizable=0;points=[];autosize=1;strokeColor=none;fillColor=none;" vertex="1" parent="WIyWlLk6GJQsqaUBKTNV-1">
          <mxGeometry x="-400" y="-425" width="40" height="30" as="geometry" />
        </mxCell>
        <mxCell id="yq9D64mHG4KZtYuCbHPB-189" value="" style="endArrow=none;html=1;rounded=0;entryX=0.5;entryY=1;entryDx=0;entryDy=0;" edge="1" parent="WIyWlLk6GJQsqaUBKTNV-1" target="yq9D64mHG4KZtYuCbHPB-186">
          <mxGeometry width="50" height="50" relative="1" as="geometry">
            <mxPoint x="-300" y="-280" as="sourcePoint" />
            <mxPoint x="-420" y="-500" as="targetPoint" />
          </mxGeometry>
        </mxCell>
        <mxCell id="yq9D64mHG4KZtYuCbHPB-190" value="" style="endArrow=classic;html=1;rounded=0;entryX=1;entryY=0.5;entryDx=0;entryDy=0;" edge="1" parent="WIyWlLk6GJQsqaUBKTNV-1" target="yq9D64mHG4KZtYuCbHPB-159">
          <mxGeometry width="50" height="50" relative="1" as="geometry">
            <mxPoint x="-300" y="-285" as="sourcePoint" />
            <mxPoint x="-420" y="-500" as="targetPoint" />
          </mxGeometry>
        </mxCell>
      </root>
    </mxGraphModel>
  </diagram>
</mxfile>
